<?xml version="1.0" encoding="utf-8"?>
<!-- Generator: Adobe Illustrator 16.0.0, SVG Export Plug-In . SVG Version: 6.00 Build 0)  -->
<!DOCTYPE svg PUBLIC "-//W3C//DTD SVG 1.1//EN" "http://www.w3.org/Graphics/SVG/1.1/DTD/svg11.dtd">
<svg version="1.1" id="Layer_1" xmlns="http://www.w3.org/2000/svg" xmlns:xlink="http://www.w3.org/1999/xlink" x="0px" y="0px"
	 width="26px" height="26px" viewBox="0 0 26 26" enable-background="new 0 0 26 26" xml:space="preserve">
<g>
	<path fill="#6BCCDE" d="M22.522,0.188H3.478c-1.809,0-3.289,1.479-3.289,3.289v19.045c0,1.81,1.48,3.29,3.289,3.29h19.045
		c1.81,0,3.29-1.48,3.29-3.29V3.477C25.812,1.667,24.332,0.188,22.522,0.188z M17.702,4.188c0-0.636,0.519-1.154,1.152-1.154h2.896
		c0.633,0,1.153,0.518,1.153,1.154v2.76c0,0.634-0.521,1.154-1.153,1.154h-2.896c-0.634,0-1.152-0.52-1.152-1.154V4.188z
		 M13.024,7.957c2.842,0,5.146,2.233,5.146,4.986c0,2.753-2.304,4.986-5.146,4.986s-5.146-2.233-5.146-4.986
		C7.879,10.19,10.183,7.957,13.024,7.957z M22.916,21.847c0,0.561-0.458,1.018-1.018,1.018H4.054c-0.561,0-1.019-0.457-1.019-1.018
		V11.023h2.354c-0.213,0.698-0.329,1.435-0.329,2.199c0,4.262,3.565,7.717,7.964,7.717c4.398,0,7.965-3.455,7.965-7.717
		c0-0.764-0.115-1.501-0.329-2.199h2.256V21.847z"/>
</g>
</svg>
