<?xml version="1.0" encoding="utf-8"?>
<!-- Generator: Adobe Illustrator 16.0.0, SVG Export Plug-In . SVG Version: 6.00 Build 0)  -->
<!DOCTYPE svg PUBLIC "-//W3C//DTD SVG 1.1//EN" "http://www.w3.org/Graphics/SVG/1.1/DTD/svg11.dtd">
<svg version="1.1" id="Layer_1" xmlns="http://www.w3.org/2000/svg" xmlns:xlink="http://www.w3.org/1999/xlink" x="0px" y="0px"
	 width="26px" height="26px" viewBox="0 0 26 26" enable-background="new 0 0 26 26" xml:space="preserve">
<g>
	<path fill="#6ACCDF" d="M23.833,0.206H2.165c-1.038,0-1.878,0.821-1.878,1.833V23.96c0,1.014,0.84,1.834,1.878,1.834h21.668
		c1.039,0,1.881-0.82,1.881-1.834V2.039C25.714,1.026,24.872,0.206,23.833,0.206z M7.994,21.626h-3.84V10.071h3.84V21.626z
		 M6.074,8.494H6.049c-1.289,0-2.122-0.888-2.122-1.996c0-1.135,0.859-1.997,2.172-1.997c1.314,0,2.123,0.862,2.148,1.997
		C8.247,7.606,7.413,8.494,6.074,8.494z M21.841,21.626h-3.838v-6.181c0-1.554-0.558-2.614-1.945-2.614
		c-1.063,0-1.694,0.715-1.973,1.405c-0.101,0.247-0.126,0.592-0.126,0.937v6.453h-3.84c0,0,0.05-10.47,0-11.555h3.84v1.637
		c0.511-0.787,1.424-1.908,3.46-1.908c2.528,0,4.422,1.651,4.422,5.2V21.626z"/>
	<path fill="#6ACCDF" d="M13.959,11.747v-0.039c-0.009,0.013-0.017,0.025-0.024,0.039H13.959z"/>
</g>
</svg>
