<?xml version="1.0" encoding="utf-8"?>
<!-- Generator: Adobe Illustrator 16.0.0, SVG Export Plug-In . SVG Version: 6.00 Build 0)  -->
<!DOCTYPE svg PUBLIC "-//W3C//DTD SVG 1.1//EN" "http://www.w3.org/Graphics/SVG/1.1/DTD/svg11.dtd">
<svg version="1.1" id="Layer_1" xmlns="http://www.w3.org/2000/svg" xmlns:xlink="http://www.w3.org/1999/xlink" x="0px" y="0px"
	 width="28.062px" height="26.625px" viewBox="0 0 28.062 26.625" enable-background="new 0 0 28.062 26.625" xml:space="preserve">
<path fill="#6ACCDF" d="M26.587,4.26c-0.971,0.431-2.015,0.723-3.11,0.853c1.118-0.67,1.977-1.732,2.382-2.997
	c-1.048,0.621-2.207,1.072-3.44,1.314c-0.988-1.053-2.396-1.71-3.954-1.71c-2.99,0-5.415,2.425-5.415,5.417
	c0,0.424,0.047,0.837,0.141,1.234C8.688,8.145,4.697,5.989,2.026,2.711c-0.467,0.8-0.734,1.731-0.734,2.723
	c0,1.879,0.957,3.537,2.41,4.508C2.813,9.915,1.979,9.67,1.249,9.265c0,0.023,0,0.045,0,0.068c0,2.625,1.867,4.814,4.344,5.311
	c-0.455,0.124-0.933,0.19-1.426,0.19c-0.349,0-0.688-0.034-1.02-0.096c0.689,2.15,2.689,3.717,5.06,3.761
	c-1.854,1.451-4.189,2.318-6.726,2.318c-0.438,0-0.869-0.025-1.292-0.075c2.397,1.535,5.244,2.432,8.302,2.432
	c9.962,0,15.411-8.253,15.411-15.41c0-0.235-0.005-0.469-0.016-0.701C24.942,6.3,25.861,5.346,26.587,4.26z"/>
</svg>
